<?xml version="1.0" encoding="UTF-8"?>
<svg id="Capa_1" xmlns="http://www.w3.org/2000/svg" version="1.1" viewBox="0 0 509 182.8" fill="#FFFFFF">
  <path fill="#FFFFFF" d="M428.9,0v118.2c0,4.9,9.1,11.6,13.8,11.6h66.3v53h-145V53.6h-99c-.3,0-2.5,1.1-3.1,1.4-10,5-10.8,19.5-1.7,25.9s4.9,2.6,5.3,2.6h67.7l.8.8v52.8h-67.4c-4.3,0-12.7,7.3-12.7,11.6v34.1h-64.3v-114.8c0-13.2-17.7-19.5-26.5-10s-3.9,6.2-3.9,7.2v117.7h-64.3v-116c0-.5-1.4-4.3-1.8-5-4.9-10.4-19.7-11.3-26.1-2-.7.9-2.6,5-2.6,5.9v117.1H0V0h428.9Z"/>
  <path fill="#FFFFFF" d="M477.8.2c37.2-4.5,41.3,49.4,7.7,53.4-36,4.3-40.9-49.3-7.7-53.4ZM478.4,3.5c-28.9,4-25,49.9,6.6,46.6,29.5-3,25.5-51-6.6-46.6Z"/>
  <path fill="#FFFFFF" d="M484.5,11.9c8.9,1.1,10.7,10.4,3.1,14.4,5.2,2.6,3.5,9.8,5.1,14.7l-3.9.2c-1.4-2.2-1.2-12.9-4.3-12.9h-8.2v12.1c-1,1.3-3.4,1.3-4.5,0V12.7l.8-.8c3.8.3,8.2-.5,11.9,0ZM476.3,24.3h8.7c3.8,0,3.1-8.5.6-8.5h-9.3v8.5Z"/>
</svg>
